<svg
  xmlns="http://www.w3.org/2000/svg"
  width="700"
  height="620"
  viewBox="0 0 700 620"
  fill="none"
  shape-rendering="crispEdges"
>
  <!-- Mount -->
  <path
    fill="#fff"
    d="
      M43 65H168V85H158V95H53V85H43V65Z
      M88 105H113V215H103V335H88V105Z
    "
  />

  <!-- Rudder blade -->
  <path
    fill="#fff"
    d="
      M113 205H153V215H183V225H208V235H228V245H248V255H263V270H278V290H293V320H303V355H313V400H323V485H313V505H303V515H253V505H228V495H208V485H193V475H178V465H163V450H148V430H138V410H128V385H118V350H113V205Z
    "
  />

  <!-- Pixel bubbles -->
  <path
    fill="#fff"
    fill-rule="evenodd"
    d="
      M398 42H408V52H418V62H408V72H398V62H388V52H398V42Z

      M500 105H530V115H540V145H530V155H500V145H490V115H500V105ZM505 115V145H525V115H505Z

      M438 230H448V240H458V250H448V260H438V250H428V240H438V230Z

      M575 315H585V325H575V315Z

      M490 425H520V435H530V465H520V475H490V465H480V435H490V425ZM495 435V465H515V435H495Z

      M455 535H465V545H475V555H465V565H455V555H445V545H455V535Z
    "
  />
</svg>
