<svg xmlns="http://www.w3.org/2000/svg" width="1774" height="887" viewBox="0 0 1774 887" shape-rendering="crispEdges">
  <rect width="100%" height="100%" fill="#000"/>
  <path d="M 1462 661 L 1462 670 L 1463 671 L 1472 671 L 1473 672 L 1473 682 L 1472 683 L 1463 683 L 1461 681 L 1461 672 L 1452 672 L 1451 673 L 1451 679 L 1452 680 L 1451 681 L 1452 682 L 1461 682 L 1462 683 L 1462 692 L 1463 693 L 1471 693 L 1472 692 L 1472 683 L 1473 682 L 1482 682 L 1483 681 L 1483 672 L 1473 672 L 1472 671 L 1472 661 Z M 1529 539 L 1529 549 L 1528 550 L 1518 550 L 1518 579 L 1519 580 L 1528 580 L 1529 581 L 1529 591 L 1559 591 L 1559 581 L 1530 581 L 1529 580 L 1529 557 L 1528 556 L 1528 550 L 1529 549 L 1559 549 L 1560 550 L 1560 579 L 1561 580 L 1570 580 L 1571 579 L 1571 550 L 1560 550 L 1559 549 L 1559 539 Z M 1635 452 L 1635 462 L 1646 462 L 1646 452 Z M 1469 385 L 1469 394 L 1467 396 L 1458 396 L 1458 406 L 1468 406 L 1469 407 L 1469 417 L 1478 417 L 1478 407 L 1469 407 L 1467 404 L 1468 403 L 1468 396 L 1469 395 L 1478 395 L 1479 396 L 1479 405 L 1480 406 L 1489 406 L 1489 396 L 1479 396 L 1478 395 L 1478 385 Z M 819 385 L 819 507 L 845 507 L 845 465 L 846 464 L 871 464 L 872 465 L 872 474 L 873 475 L 885 475 L 886 476 L 886 490 L 897 490 L 898 491 L 898 506 L 899 507 L 924 507 L 924 482 L 912 482 L 911 481 L 911 470 L 899 470 L 897 468 L 897 458 L 898 457 L 911 457 L 911 446 L 912 445 L 924 445 L 924 402 L 912 402 L 911 401 L 911 385 Z M 845 410 L 846 409 L 897 409 L 898 410 L 898 434 L 897 435 L 886 435 L 886 439 L 884 441 L 846 441 L 845 440 Z M 691 385 L 690 386 L 690 506 L 691 507 L 784 507 L 784 482 L 717 482 L 716 481 L 716 476 L 717 475 L 717 469 L 716 468 L 716 460 L 718 457 L 770 457 L 770 434 L 756 434 L 755 435 L 732 434 L 731 435 L 718 435 L 716 433 L 716 430 L 717 429 L 717 423 L 716 422 L 716 415 L 717 414 L 717 410 L 718 409 L 784 409 L 784 385 Z M 551 385 L 551 507 L 630 507 L 630 504 L 631 503 L 631 495 L 632 494 L 643 494 L 644 492 L 644 481 L 645 480 L 656 480 L 656 413 L 655 412 L 653 413 L 651 412 L 650 413 L 649 412 L 644 412 L 643 411 L 644 410 L 644 406 L 643 405 L 643 396 L 631 396 L 630 395 L 630 385 Z M 578 409 L 617 409 L 618 410 L 618 419 L 619 420 L 630 420 L 631 421 L 631 470 L 630 471 L 619 471 L 618 472 L 619 473 L 618 474 L 619 480 L 617 482 L 578 482 L 577 481 L 577 410 Z M 411 385 L 411 507 L 490 507 L 491 506 L 490 505 L 491 504 L 491 495 L 492 494 L 504 494 L 504 481 L 505 480 L 516 480 L 516 413 L 505 413 L 504 412 L 504 397 L 492 397 L 490 395 L 491 394 L 491 386 L 490 385 Z M 438 409 L 477 409 L 478 410 L 478 420 L 489 420 L 491 422 L 491 470 L 490 471 L 479 471 L 478 472 L 478 481 L 477 482 L 438 482 L 437 481 L 437 410 Z M 273 385 L 272 386 L 272 403 L 273 404 L 273 416 L 272 417 L 272 425 L 273 426 L 273 442 L 272 443 L 272 453 L 273 454 L 273 481 L 272 482 L 272 489 L 273 490 L 290 490 L 291 491 L 291 507 L 357 507 L 358 506 L 358 491 L 359 490 L 377 490 L 377 385 L 351 385 L 351 481 L 350 482 L 300 482 L 299 481 L 299 385 Z M 133 385 L 133 506 L 134 507 L 159 507 L 159 466 L 161 464 L 185 464 L 187 466 L 187 475 L 199 475 L 200 476 L 200 490 L 211 490 L 212 491 L 212 506 L 213 507 L 238 507 L 238 482 L 226 482 L 225 481 L 225 470 L 213 470 L 212 469 L 212 458 L 213 457 L 224 457 L 225 456 L 225 446 L 226 445 L 238 445 L 238 402 L 226 402 L 225 401 L 225 385 Z M 159 410 L 160 409 L 211 409 L 212 410 L 212 434 L 211 435 L 202 435 L 200 436 L 200 440 L 199 441 L 161 441 L 159 439 Z M 1134 350 L 1133 351 L 1133 528 L 1142 528 L 1143 529 L 1143 552 L 1147 552 L 1148 553 L 1152 553 L 1153 554 L 1153 573 L 1161 573 L 1163 575 L 1163 594 L 1172 594 L 1174 596 L 1174 617 L 1180 617 L 1181 618 L 1181 622 L 1182 623 L 1181 625 L 1183 626 L 1190 626 L 1191 627 L 1191 636 L 1200 636 L 1201 637 L 1201 645 L 1205 645 L 1206 644 L 1208 646 L 1208 651 L 1209 652 L 1215 652 L 1216 653 L 1216 659 L 1217 660 L 1231 660 L 1232 661 L 1232 671 L 1249 671 L 1250 672 L 1250 679 L 1251 680 L 1250 681 L 1251 682 L 1295 682 L 1296 681 L 1296 672 L 1297 671 L 1306 671 L 1306 544 L 1297 544 L 1296 543 L 1296 491 L 1287 491 L 1286 490 L 1286 459 L 1278 459 L 1276 457 L 1276 437 L 1269 437 L 1268 436 L 1268 418 L 1260 418 L 1259 417 L 1259 407 L 1250 407 L 1249 406 L 1249 396 L 1239 396 L 1237 394 L 1237 385 L 1227 385 L 1226 384 L 1226 373 L 1202 373 L 1201 372 L 1201 362 L 1178 362 L 1177 361 L 1175 361 L 1174 360 L 1174 351 L 1173 350 Z M 1548 282 L 1548 310 L 1559 310 L 1560 311 L 1560 321 L 1561 322 L 1562 321 L 1563 322 L 1586 322 L 1587 321 L 1587 312 L 1586 311 L 1560 311 L 1559 310 L 1559 282 Z M 1560 270 L 1560 280 L 1562 281 L 1587 281 L 1588 282 L 1588 310 L 1598 310 L 1598 282 L 1588 282 L 1587 281 L 1587 271 L 1586 270 Z M 1133 259 L 1107 259 L 1107 485 L 1120 485 L 1120 339 L 1121 338 L 1133 338 Z M 1063 216 L 1063 234 L 1064 235 L 1074 235 L 1076 237 L 1076 246 L 1174 246 L 1174 237 L 1176 235 L 1186 235 L 1187 236 L 1188 235 L 1188 216 L 1187 215 L 1064 215 Z M 1441 193 L 1441 203 L 1450 203 L 1451 204 L 1451 214 L 1450 215 L 1441 215 L 1440 214 L 1440 205 L 1439 204 L 1429 204 L 1430 206 L 1430 214 L 1439 214 L 1440 215 L 1441 225 L 1450 225 L 1450 221 L 1451 220 L 1451 216 L 1450 215 L 1451 214 L 1461 214 L 1461 204 L 1451 204 L 1450 203 L 1450 193 Z" fill="#fff" fill-rule="evenodd"/>
</svg>
